<svg width="165.017" height="194.2" viewBox="0 0 165.017 194.2" fill="none" xmlns="http://www.w3.org/2000/svg">
<g id="Group 32">
<path id="Vector" fill-rule="evenodd" clip-rule="evenodd" d="M165.017 79.349C165.017 79.7831 165.017 80.1691 165.017 80.6032V80.7961L85.2341 161.158C84.9447 161.158 84.7035 161.158 84.4141 161.158C84.1247 161.158 83.98 161.158 83.7388 161.158L164.969 79.349H165.017ZM162.798 61.6945C162.895 62.0804 162.991 62.4663 163.088 62.9004L67.3384 159.373C66.9525 159.277 66.5184 159.18 66.1325 159.084L162.798 61.6945ZM162.075 102.117C161.882 102.792 161.689 103.515 161.448 104.191L108.581 157.444C107.905 157.637 107.182 157.878 106.506 158.071L162.027 102.117H162.075ZM157.685 46.9823C157.83 47.32 157.975 47.6576 158.119 47.9953L52.3369 154.55L52.1439 154.453C51.9992 154.405 51.8545 154.309 51.7098 154.26L51.3239 154.067L157.637 46.9823H157.685ZM150.691 34.7303C150.788 34.875 150.884 35.0197 150.98 35.1162V35.2126C151.029 35.2126 39.6024 147.507 39.6024 147.507L39.4095 147.362C39.2648 147.266 39.1201 147.17 39.0236 147.073L38.7342 146.88L150.45 34.3444L150.691 34.7303ZM141.381 23.6359C141.623 23.8771 141.864 24.1182 142.105 24.3594L28.6045 138.68L28.4598 138.583C28.3633 138.487 28.2186 138.342 28.1221 138.246L27.8327 137.956L141.333 23.5877L141.381 23.6359ZM130.625 14.5674C130.914 14.7604 131.204 14.9533 131.493 15.1945L19.3913 128.116L19.2949 128.02C19.1984 127.875 19.1019 127.778 19.0055 127.634L18.7643 127.296L130.625 14.6157V14.5674ZM118.469 7.52489C118.614 7.57313 118.759 7.6696 118.903 7.71784L119.048 7.81432L11.9147 115.768L11.77 115.526C11.7217 115.382 11.6253 115.237 11.577 115.092L11.4323 114.803L118.035 7.38019L118.421 7.57313L118.469 7.52489ZM103.419 2.26712C103.805 2.36359 104.191 2.46007 104.577 2.55654L6.56044 101.297C6.46397 100.911 6.3675 100.525 6.27102 100.139L103.419 2.26712ZM85.9095 0.0482394C86.3918 0.0482394 86.8742 0.0482394 87.3083 0.0482394L3.90744 84.028C3.90744 83.5456 3.90744 83.0632 3.90744 82.6291L85.9095 0V0.0482394ZM65.3607 2.26712L5.9816 62.0804C6.12631 61.405 6.31926 60.778 6.46397 60.1027L63.4313 2.74949C64.0583 2.55654 64.7336 2.41183 65.3607 2.26712Z" fill="#BA8C74"/>
<path id="Vector_2" fill-rule="evenodd" clip-rule="evenodd" d="M162.846 113.549C163.039 113.404 163.184 113.163 163.184 112.825V112.632C163.184 112.198 163.184 111.764 163.184 111.378C163.184 110.944 162.943 110.606 162.557 110.413C162.171 110.269 161.737 110.365 161.448 110.655L80.2173 192.464C79.9278 192.753 79.8314 193.187 79.9761 193.573C80.1208 193.959 80.5067 194.2 80.9408 194.2C81.182 194.2 81.3749 194.2 81.6161 194.2C81.8573 194.2 82.1467 194.2 82.4361 194.2C82.7256 194.2 82.9667 194.104 83.1597 193.911L162.943 113.549H162.846ZM160.917 93.4342C160.82 93.0483 160.531 92.7589 160.193 92.6624C159.856 92.5659 159.422 92.6624 159.18 92.9518L62.5145 190.341C62.2733 190.631 62.1286 191.017 62.2733 191.354C62.3698 191.692 62.6592 191.981 63.0451 192.078C63.431 192.174 63.8651 192.271 64.251 192.367C64.5886 192.464 64.9745 192.367 65.2157 192.078L160.965 95.6048C161.206 95.3636 161.303 94.9777 161.255 94.6401C161.158 94.2542 161.062 93.8201 160.965 93.4342H160.917ZM160.242 134.435C160.386 134.001 160.193 133.519 159.759 133.277C159.373 133.036 158.843 133.133 158.505 133.422L102.985 189.377C102.647 189.714 102.599 190.245 102.84 190.631C103.081 191.017 103.564 191.21 103.998 191.113C104.721 190.92 105.397 190.679 106.12 190.486C106.265 190.438 106.41 190.341 106.554 190.245L159.422 136.992C159.518 136.895 159.615 136.751 159.663 136.558C159.856 135.882 160.097 135.159 160.29 134.435H160.242ZM48.96 187.399C49.1047 187.495 49.2977 187.544 49.4906 187.544H49.5389C49.78 187.544 50.0212 187.399 50.2142 187.254L155.997 80.6997C156.286 80.4103 156.383 79.928 156.19 79.5421C156.045 79.2044 155.9 78.8667 155.707 78.5291C155.563 78.2397 155.273 77.9985 154.936 77.9503C154.598 77.902 154.26 77.9985 154.019 78.2397L47.7059 185.325C47.4647 185.566 47.3682 185.904 47.4165 186.241C47.4647 186.579 47.7059 186.868 47.9953 187.013L48.3812 187.206C48.5259 187.254 48.6706 187.351 48.8153 187.399H48.8636H48.96ZM35.9844 180.26H35.9362C35.9362 180.26 36.0809 180.356 36.1291 180.356C36.4185 180.501 36.6597 180.501 36.6597 180.501C36.9491 180.501 37.1903 180.405 37.3833 180.212L148.81 67.9171L148.086 68.2065C148.086 68.2065 148.231 68.1582 148.424 68.0135C148.617 67.9171 148.81 67.7724 148.954 67.5794C149.147 67.29 149.244 66.9523 148.954 66.5664L148.906 66.47C148.81 66.3253 148.713 66.1805 148.617 66.0841L148.375 65.6982C148.182 65.457 147.941 65.264 147.604 65.264C147.314 65.264 146.977 65.3605 146.784 65.5535L35.0679 178.089C34.875 178.33 34.7303 178.62 34.7785 178.909C34.7785 179.199 34.9715 179.488 35.2126 179.681L35.5021 179.874C35.6468 179.97 35.7915 180.067 35.8879 180.163H35.9362L35.9844 180.26ZM24.9383 171.336L25.0347 171.433C25.3724 171.77 25.71 171.722 25.71 171.722C25.9995 171.722 26.2406 171.626 26.4336 171.433L139.934 57.1121C140.32 56.7262 140.32 56.0509 139.934 55.665C139.693 55.4238 139.452 55.1826 139.21 54.9415C138.969 54.7003 138.776 54.652 138.487 54.652C138.198 54.652 137.956 54.7485 137.763 54.9415L24.2629 169.31C24.07 169.503 23.9735 169.793 23.9735 170.034C23.9735 170.323 24.07 170.564 24.2629 170.757L24.5524 171.047C24.6488 171.143 24.7936 171.288 24.89 171.384L24.9383 171.336ZM15.6286 160.628C15.6286 160.628 15.6769 160.724 15.7251 160.724C15.7251 160.724 15.7251 160.724 15.7251 160.772C16.0628 161.206 16.4969 161.158 16.4969 161.158C16.7863 161.158 17.0275 161.062 17.2204 160.869L129.322 47.9472C129.515 47.7542 129.66 47.4166 129.611 47.1271C129.611 46.8377 129.418 46.5483 129.177 46.3554C128.888 46.1624 128.598 45.9212 128.309 45.7283C127.875 45.4389 127.344 45.4871 126.958 45.8248L15.098 158.505C14.7604 158.843 14.7121 159.422 15.0015 159.856L15.2427 160.193C15.3392 160.338 15.4357 160.435 15.5321 160.579L15.6286 160.628ZM116.298 40.7599C116.684 40.6634 116.973 40.374 117.022 39.9881C117.022 39.8434 117.022 39.6987 117.022 39.554C117.022 39.3128 116.973 39.0716 116.588 38.8787L116.443 38.8305C116.298 38.7822 116.153 38.6858 116.009 38.6375L115.623 38.4446C115.237 38.2516 114.755 38.3481 114.465 38.6375L7.86254 146.06C7.57312 146.35 7.47665 146.832 7.6696 147.218L7.8143 147.507L8.00726 147.941L8.15196 148.183C8.29667 148.472 8.58609 148.713 8.92375 148.761C9.2614 148.81 9.59906 148.713 9.84024 148.472L116.973 40.5187L116.25 40.8082C116.25 40.8082 116.25 40.8082 116.346 40.7117L116.298 40.7599ZM100.766 33.235C100.428 33.1386 100.042 33.235 99.8013 33.5244L2.65301 131.396C2.41182 131.637 2.31535 132.023 2.36358 132.361C2.46006 132.747 2.55653 133.133 2.65301 133.519C2.74948 133.856 3.0389 134.146 3.37655 134.242C3.71421 134.339 4.1001 134.242 4.38952 133.953L102.406 35.2127C102.647 34.9715 102.744 34.5857 102.647 34.1998C102.551 33.8139 102.261 33.5727 101.924 33.4762C101.538 33.3797 101.152 33.2833 100.718 33.1868L100.766 33.235ZM83.0632 30.9679C82.7738 30.9679 82.5326 31.0644 82.2914 31.2573L0.289414 113.886C0.0964685 114.079 0 114.369 0 114.658C0 115.141 -4.4169e-06 115.623 0.0482321 116.105C0.0482321 116.539 0.337655 116.877 0.723547 117.022C1.10944 117.167 1.54356 117.07 1.83298 116.781L85.2339 32.8009C85.5233 32.5115 85.6197 32.0774 85.475 31.6915C85.3303 31.3056 84.9444 31.0644 84.5585 31.0162C84.0762 31.0162 83.5938 31.0162 83.1115 31.0162L83.0632 30.9679ZM63.238 35.0198C63.5757 34.6821 63.6239 34.1998 63.3827 33.7656C63.1416 33.3797 62.7074 33.1386 62.2251 33.2833C61.5498 33.428 60.9227 33.6209 60.2474 33.8139C60.0544 33.8139 59.9097 33.9586 59.765 34.1033L2.79771 91.4565C2.653 91.6012 2.55653 91.7459 2.5083 91.9388C2.31535 92.6142 2.17064 93.2412 2.02593 93.9165C1.92946 94.3507 2.1224 94.833 2.5083 95.0742C2.89419 95.3154 3.42478 95.2189 3.76244 94.8813L63.1416 35.068L63.238 35.0198Z" fill="#BA8C74"/>
</g>
</svg>
