<svg width="148.611" height="93.400" viewBox="0 0 148.611 93.400" fill="none" xmlns="http://www.w3.org/2000/svg" aria-hidden="true">
  <g id="Group-52">
    <svg x="63.923" y="16.092" width="60.134" height="60.267" viewBox="0 0 60 60" preserveAspectRatio="none" overflow="visible">
      <g id="Group-1">
      <path id="Vector-1" d="M30 60C46.5686 60 60 46.5685 60 30C60 13.4315 46.5686 0 30 0C13.4315 0 1.82241e-05 13.4315 1.82241e-05 30C1.82241e-05 46.5685 13.4315 60 30 60Z" fill="#A97A5C"/>
      </g>
    </svg>
    <svg x="-0.013" y="41.278" width="3.283" height="12.593" viewBox="0 0 3.29809 12.7212" preserveAspectRatio="none" overflow="visible">
      <g id="Group-2">
      <path id="Vector-2" d="M3.29809 0V12.7212L0 9.28455V3.29809L3.29809 0Z" fill="#E5C8AE"/>
      </g>
    </svg>
    <svg x="7.245" y="34.081" width="3.283" height="26.985" viewBox="0 0 3.29809 27.4379" preserveAspectRatio="none" overflow="visible">
      <g id="Group-3">
      <path id="Vector-3" d="M3.29809 0V27.4379L0 24.029V3.2981L3.29809 0Z" fill="#E5C8AE"/>
      </g>
    </svg>
    <svg x="14.502" y="26.885" width="3.283" height="42.277" viewBox="0 0 3.29809 42.1546" preserveAspectRatio="none" overflow="visible">
      <g id="Group-4">
      <path id="Vector-4" d="M3.29809 0V42.1546L0 38.7457V3.32581L3.29809 0Z" fill="#E5C8AE"/>
      </g>
    </svg>
    <svg x="21.587" y="19.689" width="3.456" height="56.669" viewBox="0 0 3.32581 56.8436" preserveAspectRatio="none" overflow="visible">
      <g id="Group-5">
      <path id="Vector-5" d="M3.32581 0V56.8436L0 53.4347V3.29809L3.32581 0Z" fill="#E5C8AE"/>
      </g>
    </svg>
    <svg x="28.845" y="12.494" width="3.283" height="71.061" viewBox="0 0 3.29809 71.5881" preserveAspectRatio="none" overflow="visible">
      <g id="Group-6">
      <path id="Vector-6" d="M3.29809 0V71.5881L0 68.1514V3.2981L3.29809 0Z" fill="#E5C8AE"/>
      </g>
    </svg>
    <svg x="36.102" y="5.298" width="3.283" height="86.352" viewBox="0 0 3.29809 86.3048" preserveAspectRatio="none" overflow="visible">
      <g id="Group-7">
      <path id="Vector-7" d="M3.29809 0V86.3048L0 82.8681V3.32581L3.29809 0Z" fill="#E5C8AE"/>
      </g>
    </svg>
    <svg x="43.360" y="-0.100" width="3.283" height="93.548" viewBox="0 0 3.2981 93.3998" preserveAspectRatio="none" overflow="visible">
      <g id="Group-8">
      <path id="Vector-8" d="M3.2981 2.27263V93.3998H0V1.05317L1.02546 0L3.2981 2.27263Z" fill="#E5C8AE"/>
      </g>
    </svg>
    <svg x="50.618" y="6.197" width="3.283" height="87.252" viewBox="0 0 3.2981 87.2194" preserveAspectRatio="none" overflow="visible">
      <g id="Group-9">
      <path id="Vector-9" d="M3.2981 3.29809V87.2194H0V0L3.2981 3.29809Z" fill="#E5C8AE"/>
      </g>
    </svg>
    <svg x="57.702" y="13.393" width="3.456" height="80.055" viewBox="0 0 3.29809 79.9857" preserveAspectRatio="none" overflow="visible">
      <g id="Group-10">
      <path id="Vector-10" d="M3.29809 3.2981V79.9857H0V0L3.29809 3.2981Z" fill="#E5C8AE"/>
      </g>
    </svg>
    <svg x="64.960" y="20.589" width="3.283" height="72.859" viewBox="0 0 3.32581 72.7798" preserveAspectRatio="none" overflow="visible">
      <g id="Group-11">
      <path id="Vector-11" d="M3.32581 3.2981V72.7798H0V0L3.32581 3.2981Z" fill="#E5C8AE"/>
      </g>
    </svg>
    <svg x="72.218" y="27.785" width="3.283" height="65.663" viewBox="0 0 3.2981 65.5462" preserveAspectRatio="none" overflow="visible">
      <g id="Group-12">
      <path id="Vector-12" d="M3.2981 3.2981V65.5462H0V0L3.2981 3.2981Z" fill="#E5C8AE"/>
      </g>
    </svg>
    <svg x="79.475" y="34.981" width="3.283" height="58.467" viewBox="0 0 3.2981 58.3403" preserveAspectRatio="none" overflow="visible">
      <g id="Group-13">
      <path id="Vector-13" d="M3.2981 3.32581V58.3403H0V0L3.2981 3.32581Z" fill="#E5C8AE"/>
      </g>
    </svg>
    <svg x="86.733" y="42.177" width="3.283" height="51.271" viewBox="0 0 3.32581 51.1066" preserveAspectRatio="none" overflow="visible">
      <g id="Group-14">
      <path id="Vector-14" d="M3.32581 3.29809V51.1066H0V0L3.32581 3.29809Z" fill="#E5C8AE"/>
      </g>
    </svg>
    <svg x="93.818" y="49.373" width="3.456" height="44.076" viewBox="0 0 3.29809 43.873" preserveAspectRatio="none" overflow="visible">
      <g id="Group-15">
      <path id="Vector-15" d="M3.29809 3.2981V43.873H0V0L3.29809 3.2981Z" fill="#E5C8AE"/>
      </g>
    </svg>
    <svg x="101.075" y="56.569" width="3.283" height="36.879" viewBox="0 0 3.2981 36.6671" preserveAspectRatio="none" overflow="visible">
      <g id="Group-16">
      <path id="Vector-16" d="M3.2981 3.32581V36.6671H0V0L1.91235 1.91235L3.2981 3.32581Z" fill="#E5C8AE"/>
      </g>
    </svg>
    <svg x="108.333" y="63.765" width="3.283" height="29.683" viewBox="0 0 3.32581 29.4334" preserveAspectRatio="none" overflow="visible">
      <g id="Group-17">
      <path id="Vector-17" d="M3.32581 3.29809V29.4334H0V0L3.32581 3.29809Z" fill="#E5C8AE"/>
      </g>
    </svg>
    <svg x="115.590" y="70.961" width="3.283" height="22.487" viewBox="0 0 3.29809 22.1998" preserveAspectRatio="none" overflow="visible">
      <g id="Group-18">
      <path id="Vector-18" d="M3.29809 3.2981V22.1998H0V0L3.29809 3.2981Z" fill="#E5C8AE"/>
      </g>
    </svg>
    <svg x="122.848" y="78.157" width="3.283" height="15.292" viewBox="0 0 3.2981 14.9939" preserveAspectRatio="none" overflow="visible">
      <g id="Group-19">
      <path id="Vector-19" d="M3.2981 3.32581V14.9939H0V0L3.2981 3.32581Z" fill="#E5C8AE"/>
      </g>
    </svg>
    <svg x="129.933" y="85.353" width="3.456" height="8.095" viewBox="0 0 3.32581 7.76022" preserveAspectRatio="none" overflow="visible">
      <g id="Group-20">
      <path id="Vector-20" d="M3.32581 3.2981V7.76022H0V0L3.32581 3.2981Z" fill="#E5C8AE"/>
      </g>
    </svg>
    <svg x="137.190" y="92.549" width="0.691" height="0.899" viewBox="0 0 0.554302 0.554302" preserveAspectRatio="none" overflow="visible">
      <g id="Group-21">
      <path id="Vector-21" d="M0.554302 0.554302H0V0L0.554302 0.554302Z" fill="#E5C8AE"/>
      </g>
    </svg>
    <svg x="56.493" y="-0.100" width="8.467" height="8.995" viewBox="0 0 8.42692 8.42689" preserveAspectRatio="none" overflow="visible">
      <g id="Group-22">
      <path id="Vector-22" d="M4.21343 0L0 4.21343L4.21342 8.42685L8.42685 4.21342L4.21343 0Z" fill="#A97A5C"/>
      </g>
    </svg>
    <svg x="63.232" y="7.097" width="8.467" height="8.095" viewBox="0 0 8.4269 8.42688" preserveAspectRatio="none" overflow="visible">
      <g id="Group-23">
      <path id="Vector-23" d="M4.21348 0L4.82185e-05 4.21343L4.21348 8.42685L8.4269 4.21343L4.21348 0Z" fill="#A97A5C"/>
      </g>
    </svg>
    <svg x="70.490" y="14.293" width="8.467" height="8.095" viewBox="0 0 8.42694 8.42694" preserveAspectRatio="none" overflow="visible">
      <g id="Group-24">
      <path id="Vector-24" d="M4.21352 8.97631e-05L9.01489e-05 4.21352L4.21352 8.42694L8.42695 4.21352L4.21352 8.97631e-05Z" fill="#A97A5C"/>
      </g>
    </svg>
    <svg x="77.229" y="20.589" width="8.294" height="8.995" viewBox="0 0 8.42689 8.42696" preserveAspectRatio="none" overflow="visible">
      <g id="Group-25">
      <path id="Vector-25" d="M4.21343 0.000102638L0 4.21353L4.21343 8.42696L8.42685 4.21353L4.21343 0.000102638Z" fill="#A97A5C"/>
      </g>
    </svg>
    <svg x="84.486" y="27.785" width="8.294" height="8.995" viewBox="0 0 8.42687 8.42694" preserveAspectRatio="none" overflow="visible">
      <g id="Group-26">
      <path id="Vector-26" d="M4.21343 0L0 4.21343L4.21343 8.42685L8.42685 4.21343L4.21343 0Z" fill="#A97A5C"/>
      </g>
    </svg>
    <svg x="91.053" y="34.981" width="8.467" height="8.096" viewBox="0 0 8.42697 8.42687" preserveAspectRatio="none" overflow="visible">
      <g id="Group-27">
      <path id="Vector-27" d="M4.21343 0L0 4.21343L4.21343 8.42685L8.42685 4.21343L4.21343 0Z" fill="#A97A5C"/>
      </g>
    </svg>
    <svg x="98.310" y="42.177" width="8.467" height="8.095" viewBox="0 0 8.42695 8.42693" preserveAspectRatio="none" overflow="visible">
      <g id="Group-28">
      <path id="Vector-28" d="M4.21343 7.2597e-05L0 4.2135L4.21343 8.42693L8.42685 4.2135L4.21343 7.2597e-05Z" fill="#A97A5C"/>
      </g>
    </svg>
    <svg x="105.050" y="48.474" width="8.467" height="8.995" viewBox="0 0 8.42697 8.42696" preserveAspectRatio="none" overflow="visible">
      <g id="Group-29">
      <path id="Vector-29" d="M4.21355 0.000108837L0.000118645 4.21354L4.21355 8.42696L8.42697 4.21354L4.21355 0.000108837Z" fill="#A97A5C"/>
      </g>
    </svg>
    <svg x="112.307" y="55.669" width="8.467" height="8.995" viewBox="0 0 8.42696 8.4269" preserveAspectRatio="none" overflow="visible">
      <g id="Group-30">
      <path id="Vector-30" d="M4.21343 0L0 4.21343L4.21343 8.42685L8.42685 4.21343L4.21343 0Z" fill="#A97A5C"/>
      </g>
    </svg>
    <svg x="119.046" y="62.865" width="8.294" height="8.096" viewBox="0 0 8.42689 8.42691" preserveAspectRatio="none" overflow="visible">
      <g id="Group-31">
      <path id="Vector-31" d="M4.21347 5.7815e-05L3.81861e-05 4.21349L4.21347 8.42691L8.42689 4.21349L4.21347 5.7815e-05Z" fill="#A97A5C"/>
      </g>
    </svg>
    <svg x="126.304" y="70.062" width="8.294" height="8.096" viewBox="0 0 8.42691 8.42687" preserveAspectRatio="none" overflow="visible">
      <g id="Group-32">
      <path id="Vector-32" d="M4.21348 1.15618e-05L5.65323e-05 4.21344L4.21348 8.42687L8.42691 4.21344L4.21348 1.15618e-05Z" fill="#A97A5C"/>
      </g>
    </svg>
    <svg x="132.870" y="76.358" width="8.467" height="8.995" viewBox="0 0 8.4269 8.42692" preserveAspectRatio="none" overflow="visible">
      <g id="Group-33">
      <path id="Vector-33" d="M4.21343 0L0 4.21343L4.21343 8.42685L8.42685 4.21343L4.21343 0Z" fill="#A97A5C"/>
      </g>
    </svg>
    <svg x="140.128" y="83.554" width="8.467" height="8.995" viewBox="0 0 8.42688 8.42696" preserveAspectRatio="none" overflow="visible">
      <g id="Group-34">
      <path id="Vector-34" d="M4.21343 0L0 4.21343L4.21343 8.42685L8.42685 4.21343L4.21343 0Z" fill="#A97A5C"/>
      </g>
    </svg>
    <svg x="2.061" y="41.278" width="12.442" height="12.593" viewBox="0 0 12.4718 12.4718" preserveAspectRatio="none" overflow="visible">
      <g id="Group-35">
      <path id="Vector-35" d="M6.23591 12.4718C9.6799 12.4718 12.4718 9.67988 12.4718 6.23589C12.4718 2.79191 9.6799 0 6.23591 0C2.79192 0 1.82241e-05 2.79191 1.82241e-05 6.23589C1.82241e-05 9.67988 2.79192 12.4718 6.23591 12.4718Z" fill="#A97A5C"/>
      </g>
    </svg>
  </g>
</svg>
