<svg width="79" height="232" viewBox="0 0 79 232" fill="none" xmlns="http://www.w3.org/2000/svg" aria-hidden="true">
  <defs>
    <clipPath id="record-deco-clip">
      <rect width="79" height="232"/>
    </clipPath>
  </defs>
  <g clip-path="url(#record-deco-clip)">
    <rect x="-1" y="0" width="80" height="206" fill="#EBD6C5"/>
    <g transform="translate(-92 38)">
<path id="Vector" fill-rule="evenodd" clip-rule="evenodd" d="M165.017 79.349C165.017 79.7831 165.017 80.1691 165.017 80.6032V80.7961L85.2341 161.158C84.9447 161.158 84.7035 161.158 84.4141 161.158C84.1247 161.158 83.98 161.158 83.7388 161.158L164.969 79.349H165.017ZM162.798 61.6945C162.895 62.0804 162.991 62.4663 163.088 62.9004L67.3384 159.373C66.9525 159.277 66.5184 159.18 66.1325 159.084L162.798 61.6945ZM162.075 102.117C161.882 102.792 161.689 103.515 161.448 104.191L108.581 157.444C107.905 157.637 107.182 157.878 106.506 158.071L162.027 102.117H162.075ZM157.685 46.9823C157.83 47.32 157.975 47.6576 158.119 47.9953L52.3369 154.55L52.1439 154.453C51.9992 154.405 51.8545 154.309 51.7098 154.26L51.3239 154.067L157.637 46.9823H157.685ZM150.691 34.7303C150.788 34.875 150.884 35.0197 150.98 35.1162V35.2126C151.029 35.2126 39.6024 147.507 39.6024 147.507L39.4095 147.362C39.2648 147.266 39.1201 147.17 39.0236 147.073L38.7342 146.88L150.45 34.3444L150.691 34.7303ZM141.381 23.6359C141.623 23.8771 141.864 24.1182 142.105 24.3594L28.6045 138.68L28.4598 138.583C28.3633 138.487 28.2186 138.342 28.1221 138.246L27.8327 137.956L141.333 23.5877L141.381 23.6359ZM130.625 14.5674C130.914 14.7604 131.204 14.9533 131.493 15.1945L19.3913 128.116L19.2949 128.02C19.1984 127.875 19.1019 127.778 19.0055 127.634L18.7643 127.296L130.625 14.6157V14.5674ZM118.469 7.52489C118.614 7.57313 118.759 7.6696 118.903 7.71784L119.048 7.81432L11.9147 115.768L11.77 115.526C11.7217 115.382 11.6253 115.237 11.577 115.092L11.4323 114.803L118.035 7.38019L118.421 7.57313L118.469 7.52489ZM103.419 2.26712C103.805 2.36359 104.191 2.46007 104.577 2.55654L6.56044 101.297C6.46397 100.911 6.3675 100.525 6.27102 100.139L103.419 2.26712ZM85.9095 0.0482394C86.3918 0.0482394 86.8742 0.0482394 87.3083 0.0482394L3.90744 84.028C3.90744 83.5456 3.90744 83.0632 3.90744 82.6291L85.9095 0V0.0482394ZM65.3607 2.26712L5.9816 62.0804C6.12631 61.405 6.31926 60.778 6.46397 60.1027L63.4313 2.74949C64.0583 2.55654 64.7336 2.41183 65.3607 2.26712Z" fill="#BA8C74"/>
<path id="Vector_2" fill-rule="evenodd" clip-rule="evenodd" d="M162.846 113.55C163.039 113.405 163.184 113.164 163.184 112.826V112.633C163.184 112.199 163.184 111.765 163.184 111.379C163.184 110.945 162.943 110.607 162.557 110.414C162.171 110.27 161.737 110.366 161.448 110.655L80.2173 192.465C79.9278 192.754 79.8314 193.188 79.9761 193.574C80.1208 193.96 80.5067 194.201 80.9408 194.201C81.182 194.201 81.3749 194.201 81.6161 194.201C81.8573 194.201 82.1467 194.201 82.4361 194.201C82.7256 194.201 82.9667 194.105 83.1597 193.912L162.943 113.55H162.846ZM160.917 93.435C160.82 93.0491 160.531 92.7597 160.193 92.6632C159.856 92.5668 159.422 92.6632 159.18 92.9526L62.5145 190.342C62.2733 190.632 62.1286 191.017 62.2733 191.355C62.3698 191.693 62.6592 191.982 63.0451 192.079C63.431 192.175 63.8651 192.272 64.251 192.368C64.5886 192.464 64.9745 192.368 65.2157 192.079L160.965 95.6056C161.206 95.3645 161.303 94.9786 161.255 94.6409C161.158 94.255 161.062 93.8209 160.965 93.435H160.917ZM160.242 134.436C160.386 134.002 160.193 133.52 159.759 133.278C159.373 133.037 158.843 133.134 158.505 133.423L102.985 189.377C102.647 189.715 102.599 190.246 102.84 190.632C103.081 191.017 103.564 191.21 103.998 191.114C104.721 190.921 105.397 190.68 106.12 190.487C106.265 190.439 106.41 190.342 106.554 190.246L159.422 136.993C159.518 136.896 159.615 136.751 159.663 136.558C159.856 135.883 160.097 135.16 160.29 134.436H160.242ZM48.96 187.4C49.1047 187.496 49.2977 187.544 49.4906 187.544H49.5389C49.78 187.544 50.0212 187.4 50.2142 187.255L155.997 80.7006C156.286 80.4111 156.383 79.9288 156.19 79.5429C156.045 79.2052 155.9 78.8676 155.707 78.5299C155.563 78.2405 155.273 77.9993 154.936 77.9511C154.598 77.9029 154.26 77.9993 154.019 78.2405L47.7059 185.326C47.4647 185.567 47.3682 185.904 47.4165 186.242C47.4647 186.58 47.7059 186.869 47.9953 187.014L48.3812 187.207C48.5259 187.255 48.6706 187.351 48.8153 187.4H48.8636H48.96ZM35.9844 180.261H35.9362C35.9362 180.261 36.0809 180.357 36.1291 180.357C36.4185 180.502 36.6597 180.502 36.6597 180.502C36.9491 180.502 37.1903 180.405 37.3833 180.212L148.81 67.9179L148.086 68.2073C148.086 68.2073 148.231 68.1591 148.424 68.0144C148.617 67.9179 148.81 67.7732 148.954 67.5803C149.147 67.2908 149.244 66.9532 148.954 66.5673L148.906 66.4708C148.81 66.3261 148.713 66.1814 148.617 66.0849L148.375 65.699C148.182 65.4578 147.941 65.2649 147.604 65.2649C147.314 65.2649 146.977 65.3614 146.784 65.5543L35.0679 178.09C34.875 178.331 34.7303 178.621 34.7785 178.91C34.7785 179.199 34.9715 179.489 35.2126 179.682L35.5021 179.875C35.6468 179.971 35.7915 180.068 35.8879 180.164H35.9362L35.9844 180.261ZM24.9383 171.337L25.0347 171.433C25.3724 171.771 25.71 171.723 25.71 171.723C25.9995 171.723 26.2406 171.626 26.4336 171.433L139.934 57.1129C140.32 56.727 140.32 56.0517 139.934 55.6658C139.693 55.4247 139.452 55.1835 139.21 54.9423C138.969 54.7011 138.776 54.6529 138.487 54.6529C138.198 54.6529 137.956 54.7493 137.763 54.9423L24.2629 169.311C24.07 169.504 23.9735 169.793 23.9735 170.035C23.9735 170.324 24.07 170.565 24.2629 170.758L24.5524 171.048C24.6488 171.144 24.7936 171.289 24.89 171.385L24.9383 171.337ZM15.6286 160.628C15.6286 160.628 15.6769 160.725 15.7251 160.725C15.7251 160.725 15.7251 160.725 15.7251 160.773C16.0628 161.207 16.4969 161.159 16.4969 161.159C16.7863 161.159 17.0275 161.063 17.2204 160.87L129.322 47.948C129.515 47.7551 129.66 47.4174 129.611 47.128C129.611 46.8386 129.418 46.5491 129.177 46.3562C128.888 46.1632 128.598 45.9221 128.309 45.7291C127.875 45.4397 127.344 45.4879 126.958 45.8256L15.098 158.506C14.7604 158.844 14.7121 159.423 15.0015 159.857L15.2427 160.194C15.3392 160.339 15.4357 160.435 15.5321 160.58L15.6286 160.628ZM116.298 40.7608C116.684 40.6643 116.973 40.3749 117.022 39.989C117.022 39.8443 117.022 39.6995 117.022 39.5548C117.022 39.3137 116.973 39.0725 116.588 38.8795L116.443 38.8313C116.298 38.7831 116.153 38.6866 116.009 38.6383L115.623 38.4454C115.237 38.2525 114.755 38.3489 114.465 38.6383L7.86254 146.061C7.57312 146.35 7.47665 146.833 7.6696 147.219L7.8143 147.508L8.00726 147.942L8.15196 148.183C8.29667 148.473 8.58609 148.714 8.92375 148.762C9.2614 148.81 9.59906 148.714 9.84024 148.473L116.973 40.5196L116.25 40.809C116.25 40.809 116.25 40.809 116.346 40.7125L116.298 40.7608ZM100.766 33.2359C100.428 33.1394 100.042 33.2359 99.8013 33.5253L2.65301 131.397C2.41182 131.638 2.31535 132.024 2.36358 132.362C2.46006 132.748 2.55653 133.134 2.65301 133.52C2.74948 133.857 3.0389 134.147 3.37655 134.243C3.71421 134.34 4.1001 134.243 4.38952 133.954L102.406 35.2136C102.647 34.9724 102.744 34.5865 102.647 34.2006C102.551 33.8147 102.261 33.5735 101.924 33.4771C101.538 33.3806 101.152 33.2841 100.718 33.1876L100.766 33.2359ZM83.0632 30.9688C82.7738 30.9688 82.5326 31.0652 82.2914 31.2582L0.289414 113.887C0.0964685 114.08 0 114.37 0 114.659C0 115.141 -4.4169e-06 115.624 0.0482321 116.106C0.0482321 116.54 0.337655 116.878 0.723547 117.023C1.10944 117.167 1.54356 117.071 1.83298 116.781L85.2339 32.8017C85.5233 32.5123 85.6197 32.0782 85.475 31.6923C85.3303 31.3064 84.9444 31.0652 84.5585 31.017C84.0762 31.017 83.5938 31.017 83.1115 31.017L83.0632 30.9688ZM63.238 35.0206C63.5757 34.683 63.6239 34.2006 63.3827 33.7665C63.1416 33.3806 62.7074 33.1394 62.2251 33.2841C61.5498 33.4288 60.9227 33.6218 60.2474 33.8147C60.0544 33.8147 59.9097 33.9594 59.765 34.1041L2.79771 91.4573C2.653 91.602 2.55653 91.7467 2.5083 91.9397C2.31535 92.615 2.17064 93.2421 2.02593 93.9174C1.92946 94.3515 2.1224 94.8339 2.5083 95.0751C2.89419 95.3162 3.42478 95.2197 3.76244 94.8821L63.1416 35.0689L63.238 35.0206Z" fill="#BA8C74"/>
    </g>
  </g>
</svg>
