<svg width="381" height="258" viewBox="0 0 381 258" fill="none" xmlns="http://www.w3.org/2000/svg" aria-hidden="true">
<path d="M9.10896 113.518V148.652L0 139.16V122.627L9.10896 113.518Z" fill="#E5C8AE"/>
<path d="M29.0103 93.5391V169.319L19.9014 159.904V102.648L29.0103 93.5391Z" fill="#E5C8AE"/>
<path d="M48.9898 73.5605V189.987L39.8809 180.572V82.7461L48.9898 73.5605Z" fill="#E5C8AE"/>
<path d="M68.9672 53.6582V210.654L59.7817 201.239V62.7671L68.9672 53.6582Z" fill="#E5C8AE"/>
<path d="M88.8692 33.6807V231.399L79.7603 221.907V42.7896L88.8692 33.6807Z" fill="#E5C8AE"/>
<path d="M108.848 13.7021V252.066L99.7388 242.574V22.8877L108.848 13.7021Z" fill="#E5C8AE"/>
<path d="M128.826 6.27675V257.96H119.717V2.90873L122.549 0L128.826 6.27675Z" fill="#E5C8AE"/>
<path d="M148.728 26.1783V257.959H139.619V17.0693L148.728 26.1783Z" fill="#E5C8AE"/>
<path d="M168.707 46.1568V257.959H159.598V37.0479L168.707 46.1568Z" fill="#E5C8AE"/>
<path d="M188.686 66.0592V257.96H179.5V56.9502L188.686 66.0592Z" fill="#E5C8AE"/>
<path d="M208.587 86.0377V257.96H199.479V76.9287L208.587 86.0377Z" fill="#E5C8AE"/>
<path d="M228.566 106.016V257.959H219.457V96.8301L228.566 106.016Z" fill="#E5C8AE"/>
<path d="M248.543 125.919V257.96H239.358V116.81L248.543 125.919Z" fill="#E5C8AE"/>
<path d="M268.446 145.896V257.959H259.337V136.787L268.446 145.896Z" fill="#E5C8AE"/>
<path d="M288.425 165.875V257.96H279.316V156.689L284.598 161.971L288.425 165.875Z" fill="#E5C8AE"/>
<path d="M308.404 185.777V257.96H299.218V176.668L308.404 185.777Z" fill="#E5C8AE"/>
<path d="M328.305 205.755V257.96H319.196V196.646L328.305 205.755Z" fill="#E5C8AE"/>
<path d="M348.284 225.734V257.96H339.175V216.549L348.284 225.734Z" fill="#E5C8AE"/>
<path d="M368.262 245.635V257.959H359.076V236.526L368.262 245.635Z" fill="#E5C8AE"/>
<path d="M380.587 257.96H379.056V256.429L380.587 257.96Z" fill="#E5C8AE"/>
</svg>
